<svg width="133" height="25" viewBox="0 0 133 25" fill="none" xmlns="http://www.w3.org/2000/svg">
<path d="M0 23.9999V6.14868H6.03177C7.4264 6.14868 8.57115 6.38693 9.46604 6.86343C10.3609 7.33411 11.0234 7.98204 11.4534 8.80719C11.8834 9.63235 12.0984 10.5708 12.0984 11.6226C12.0984 12.6744 11.8834 13.607 11.4534 14.4206C11.0234 15.2341 10.3638 15.8733 9.47476 16.3382C8.58568 16.7972 7.44964 17.0268 6.06663 17.0268H1.18543V15.0743H5.9969C6.9499 15.0743 7.71694 14.9348 8.29804 14.6559C8.88494 14.377 9.30914 13.9818 9.57064 13.4705C9.83794 12.9533 9.97159 12.3373 9.97159 11.6226C9.97159 10.9079 9.83794 10.2832 9.57064 9.74857C9.30333 9.21396 8.87623 8.80138 8.28932 8.51083C7.70241 8.21447 6.92665 8.0663 5.96204 8.0663H2.16167V23.9999H0ZM8.40264 15.9808L12.7957 23.9999H10.2854L5.96204 15.9808H8.40264Z" fill="#1E1E1E"/>
<path d="M19.1729 24.2788C17.8829 24.2788 16.7701 23.9941 15.8345 23.4246C14.9048 22.8494 14.1871 22.0474 13.6816 21.0189C13.1818 19.9846 12.932 18.7817 12.932 17.4103C12.932 16.0389 13.1818 14.8302 13.6816 13.7843C14.1871 12.7325 14.8902 11.9131 15.7909 11.3262C16.6974 10.7335 17.755 10.4372 18.9637 10.4372C19.661 10.4372 20.3496 10.5534 21.0295 10.7858C21.7094 11.0183 22.3283 11.396 22.8861 11.919C23.444 12.4361 23.8885 13.1218 24.2197 13.976C24.5509 14.8302 24.7166 15.882 24.7166 17.1314V18.003H14.3963V16.2249H22.6246C22.6246 15.4694 22.4735 14.7954 22.1714 14.2027C21.875 13.6099 21.4508 13.1422 20.8988 12.7993C20.3525 12.4565 19.7075 12.285 18.9637 12.285C18.1444 12.285 17.4354 12.4884 16.8369 12.8952C16.2442 13.2962 15.788 13.8191 15.4684 14.4642C15.1488 15.1092 14.989 15.8007 14.989 16.5387V17.7241C14.989 18.7352 15.1634 19.5923 15.512 20.2954C15.8665 20.9928 16.3575 21.5245 16.9851 21.8905C17.6127 22.2508 18.3419 22.431 19.1729 22.431C19.7133 22.431 20.2015 22.3554 20.6373 22.2043C21.0789 22.0474 21.4595 21.815 21.7791 21.507C22.0987 21.1932 22.3457 20.8039 22.52 20.339L24.5074 20.8969C24.2982 21.5709 23.9466 22.1637 23.4527 22.675C22.9587 23.1806 22.3486 23.5757 21.6222 23.8605C20.8959 24.1394 20.0794 24.2788 19.1729 24.2788Z" fill="#1E1E1E"/>
<path d="M28.1847 15.9459V23.9999H26.1276V10.6115H28.1149V12.7034H28.2892C28.603 12.0236 29.0795 11.4773 29.7187 11.0647C30.3579 10.6464 31.1831 10.4372 32.1942 10.4372C33.1007 10.4372 33.8939 10.6231 34.5738 10.995C35.2537 11.3611 35.7825 11.919 36.1602 12.6686C36.5379 13.4124 36.7267 14.3537 36.7267 15.4927V23.9999H34.6697V15.6322C34.6697 14.5804 34.3966 13.761 33.8503 13.1741C33.3041 12.5814 32.5545 12.285 31.6015 12.285C30.9449 12.285 30.3579 12.4274 29.8408 12.7122C29.3294 12.9969 28.9255 13.4124 28.6292 13.9586C28.3328 14.5048 28.1847 15.1673 28.1847 15.9459Z" fill="#1E1E1E"/>
<path d="M44.3809 24.2788C43.0909 24.2788 41.9781 23.9941 41.0425 23.4246C40.1128 22.8494 39.3951 22.0474 38.8896 21.0189C38.3898 19.9846 38.1399 18.7817 38.1399 17.4103C38.1399 16.0389 38.3898 14.8302 38.8896 13.7843C39.3951 12.7325 40.0982 11.9131 40.9989 11.3262C41.9054 10.7335 42.963 10.4372 44.1717 10.4372C44.869 10.4372 45.5576 10.5534 46.2375 10.7858C46.9174 11.0183 47.5363 11.396 48.0941 11.919C48.652 12.4361 49.0965 13.1218 49.4277 13.976C49.7589 14.8302 49.9245 15.882 49.9245 17.1314V18.003H39.6043V16.2249H47.8326C47.8326 15.4694 47.6815 14.7954 47.3794 14.2027C47.083 13.6099 46.6588 13.1422 46.1068 12.7993C45.5605 12.4565 44.9155 12.285 44.1717 12.285C43.3524 12.285 42.6434 12.4884 42.0449 12.8952C41.4522 13.2962 40.996 13.8191 40.6764 14.4642C40.3568 15.1092 40.197 15.8007 40.197 16.5387V17.7241C40.197 18.7352 40.3713 19.5923 40.72 20.2954C41.0745 20.9928 41.5655 21.5245 42.1931 21.8905C42.8207 22.2508 43.5499 22.431 44.3809 22.431C44.9213 22.431 45.4094 22.3554 45.8453 22.2043C46.2869 22.0474 46.6675 21.815 46.9871 21.507C47.3067 21.1932 47.5537 20.8039 47.728 20.339L49.7154 20.8969C49.5062 21.5709 49.1546 22.1637 48.6607 22.675C48.1667 23.1806 47.5566 23.5757 46.8302 23.8605C46.1039 24.1394 45.2874 24.2788 44.3809 24.2788Z" fill="#1E1E1E"/>
<path d="M54.3689 23.9999L50.2896 10.6115H52.4513L55.3451 20.862H55.4846L58.3436 10.6115H60.5401L63.3642 20.8271H63.5037L66.3976 10.6115H68.5592L64.4799 23.9999H62.4577L59.529 13.7145H59.3198L56.3911 23.9999H54.3689Z" fill="#1E1E1E"/>
<path d="M73.5004 24.3137C72.652 24.3137 71.882 24.1539 71.1905 23.8343C70.499 23.5089 69.9499 23.0411 69.5431 22.431C69.1364 21.815 68.933 21.0712 68.933 20.1996C68.933 19.4325 69.0841 18.8107 69.3862 18.3342C69.6884 17.8519 70.0923 17.4742 70.5978 17.2011C71.1034 16.928 71.6612 16.7246 72.2714 16.591C72.8873 16.4515 73.5062 16.3411 74.128 16.2597C74.9415 16.1551 75.6011 16.0767 76.1066 16.0244C76.618 15.9663 76.9899 15.8704 77.2223 15.7368C77.4606 15.6031 77.5797 15.3707 77.5797 15.0394V14.9697C77.5797 14.1097 77.3443 13.4414 76.8736 12.9649C76.4088 12.4884 75.7027 12.2502 74.7556 12.2502C73.7735 12.2502 73.0036 12.4652 72.4457 12.8952C71.8878 13.3252 71.4956 13.7843 71.269 14.2724L69.3165 13.5751C69.6652 12.7615 70.13 12.1281 70.7111 11.6749C71.298 11.2158 71.9372 10.8962 72.6287 10.7161C73.3261 10.5301 74.0117 10.4372 74.6858 10.4372C75.1158 10.4372 75.6098 10.4895 76.1676 10.5941C76.7313 10.6928 77.2746 10.8991 77.7976 11.2129C78.3264 11.5267 78.7651 12.0003 79.1138 12.6337C79.4624 13.2671 79.6368 14.1155 79.6368 15.1789V23.9999H77.5797V22.1869H77.4751C77.3356 22.4775 77.1032 22.7883 76.7778 23.1196C76.4524 23.4508 76.0194 23.7326 75.479 23.9651C74.9386 24.1975 74.2791 24.3137 73.5004 24.3137ZM73.8142 22.4658C74.6277 22.4658 75.3134 22.306 75.8713 21.9864C76.4349 21.6668 76.8591 21.2542 77.1439 20.7487C77.4344 20.2431 77.5797 19.7114 77.5797 19.1536V17.2708C77.4925 17.3754 77.3008 17.4713 77.0044 17.5585C76.7138 17.6398 76.3768 17.7125 75.9933 17.7764C75.6156 17.8345 75.2466 17.8868 74.8863 17.9333C74.5318 17.974 74.2442 18.0088 74.0234 18.0379C73.4888 18.1076 72.989 18.2209 72.5242 18.3778C72.0651 18.5289 71.6932 18.7584 71.4084 19.0664C71.1295 19.3686 70.9901 19.7812 70.9901 20.3042C70.9901 21.0189 71.2545 21.5593 71.7833 21.9254C72.3179 22.2857 72.9948 22.4658 73.8142 22.4658Z" fill="#1E1E1E"/>
<path d="M81.9521 23.9999V6.14868H84.0092V12.7383H84.1835C84.3346 12.5059 84.5438 12.2095 84.8111 11.8492C85.0842 11.4831 85.4735 11.1577 85.9791 10.873C86.4904 10.5824 87.182 10.4372 88.0536 10.4372C89.1809 10.4372 90.1746 10.719 91.0346 11.2827C91.8946 11.8463 92.5658 12.6453 93.0481 13.6797C93.5304 14.714 93.7716 15.9343 93.7716 17.3406C93.7716 18.7584 93.5304 19.9875 93.0481 21.0276C92.5658 22.062 91.8975 22.8639 91.0433 23.4334C90.1891 23.997 89.2042 24.2788 88.0885 24.2788C87.2284 24.2788 86.5398 24.1365 86.0227 23.8517C85.5055 23.5612 85.1074 23.2329 84.8285 22.8668C84.5496 22.4949 84.3346 22.1869 84.1835 21.9428H83.9394V23.9999H81.9521ZM83.9743 17.3057C83.9743 18.3168 84.1225 19.2088 84.4189 19.9817C84.7152 20.7487 85.1481 21.3501 85.7176 21.786C86.2871 22.216 86.9844 22.431 87.8095 22.431C88.6696 22.431 89.3872 22.2043 89.9625 21.7511C90.5436 21.292 90.9794 20.6761 91.27 19.9032C91.5663 19.1245 91.7145 18.2587 91.7145 17.3057C91.7145 16.3643 91.5692 15.5159 91.2787 14.7605C90.9939 13.9993 90.561 13.3978 89.9799 12.9562C89.4046 12.5088 88.6812 12.285 87.8095 12.285C86.9728 12.285 86.2696 12.4971 85.7002 12.9213C85.1307 13.3397 84.7007 13.9266 84.4101 14.6821C84.1196 15.4317 83.9743 16.3062 83.9743 17.3057Z" fill="#1E1E1E"/>
<path d="M97.2571 6.14868V23.9999H95.2V6.14868H97.2571Z" fill="#1E1E1E"/>
<path d="M104.92 24.2788C103.63 24.2788 102.517 23.9941 101.582 23.4246C100.652 22.8494 99.9342 22.0474 99.4286 21.0189C98.9289 19.9846 98.679 18.7817 98.679 17.4103C98.679 16.0389 98.9289 14.8302 99.4286 13.7843C99.9342 12.7325 100.637 11.9131 101.538 11.3262C102.445 10.7335 103.502 10.4372 104.711 10.4372C105.408 10.4372 106.097 10.5534 106.777 10.7858C107.456 11.0183 108.075 11.396 108.633 11.919C109.191 12.4361 109.636 13.1218 109.967 13.976C110.298 14.8302 110.464 15.882 110.464 17.1314V18.003H100.143V16.2249H108.372C108.372 15.4694 108.221 14.7954 107.918 14.2027C107.622 13.6099 107.198 13.1422 106.646 12.7993C106.1 12.4565 105.455 12.285 104.711 12.285C103.891 12.285 103.182 12.4884 102.584 12.8952C101.991 13.2962 101.535 13.8191 101.215 14.4642C100.896 15.1092 100.736 15.8007 100.736 16.5387V17.7241C100.736 18.7352 100.91 19.5923 101.259 20.2954C101.614 20.9928 102.105 21.5245 102.732 21.8905C103.36 22.2508 104.089 22.431 104.92 22.431C105.46 22.431 105.949 22.3554 106.384 22.2043C106.826 22.0474 107.207 21.815 107.526 21.507C107.846 21.1932 108.093 20.8039 108.267 20.339L110.254 20.8969C110.045 21.5709 109.694 22.1637 109.2 22.675C108.706 23.1806 108.096 23.5757 107.369 23.8605C106.643 24.1394 105.826 24.2788 104.92 24.2788Z" fill="#1E1E1E"/>
<path d="M121.358 13.6099L119.51 14.1329C119.394 13.8249 119.223 13.5257 118.996 13.2351C118.775 12.9388 118.473 12.6947 118.089 12.503C117.706 12.3112 117.215 12.2153 116.616 12.2153C115.797 12.2153 115.114 12.4042 114.568 12.7819C114.028 13.1538 113.757 13.6274 113.757 14.2027C113.757 14.714 113.943 15.1179 114.315 15.4142C114.687 15.7106 115.268 15.9576 116.059 16.1551L118.046 16.6433C119.243 16.9338 120.135 17.3783 120.722 17.9769C121.309 18.5696 121.602 19.3337 121.602 20.2693C121.602 21.0363 121.381 21.722 120.94 22.3264C120.504 22.9307 119.894 23.4072 119.109 23.7559C118.325 24.1045 117.412 24.2788 116.372 24.2788C115.007 24.2788 113.877 23.9825 112.982 23.3898C112.087 22.7971 111.52 21.9312 111.282 20.7923L113.234 20.3042C113.42 21.0247 113.772 21.5651 114.289 21.9254C114.812 22.2857 115.495 22.4658 116.337 22.4658C117.296 22.4658 118.057 22.2624 118.621 21.8557C119.191 21.4431 119.475 20.9492 119.475 20.3739C119.475 19.909 119.313 19.5197 118.987 19.2059C118.662 18.8863 118.162 18.648 117.488 18.4911L115.257 17.9682C114.03 17.6776 113.13 17.2273 112.555 16.6171C111.985 16.0011 111.7 15.2312 111.7 14.3073C111.7 13.5518 111.912 12.8836 112.337 12.3025C112.767 11.7214 113.351 11.2652 114.089 10.934C114.832 10.6028 115.675 10.4372 116.616 10.4372C117.941 10.4372 118.981 10.7277 119.737 11.3088C120.498 11.8899 121.038 12.6569 121.358 13.6099Z" fill="#1E1E1E"/>
<path d="M125.564 7.99995V2.71069H127.45C127.86 2.71069 128.2 2.78129 128.47 2.92247C128.742 3.06365 128.945 3.25907 129.079 3.50873C129.214 3.75666 129.281 4.04334 129.281 4.36875C129.281 4.69244 129.213 4.97739 129.077 5.22361C128.943 5.4681 128.739 5.65835 128.467 5.79437C128.197 5.93039 127.857 5.9984 127.447 5.9984H126.019V5.31142H127.375C127.633 5.31142 127.843 5.2744 128.005 5.20036C128.169 5.12633 128.288 5.01872 128.364 4.87753C128.44 4.73635 128.478 4.56675 128.478 4.36875C128.478 4.16903 128.439 3.99599 128.361 3.84964C128.286 3.70329 128.166 3.59138 128.002 3.5139C127.841 3.43469 127.628 3.39509 127.365 3.39509H126.362V7.99995H125.564ZM128.176 5.61359L129.482 7.99995H128.573L127.292 5.61359H128.176Z" fill="#1E1E1E"/>
<path fill-rule="evenodd" clip-rule="evenodd" d="M127.327 10.1538C129.897 10.1538 131.981 8.07025 131.981 5.5C131.981 2.92975 129.897 0.846154 127.327 0.846154C124.757 0.846154 122.673 2.92975 122.673 5.5C122.673 8.07025 124.757 10.1538 127.327 10.1538ZM127.327 11C130.365 11 132.827 8.53757 132.827 5.5C132.827 2.46243 130.365 0 127.327 0C124.29 0 121.827 2.46243 121.827 5.5C121.827 8.53757 124.29 11 127.327 11Z" fill="#1E1E1E"/>
</svg>
