<svg width="19" height="17" viewBox="0 0 19 17" fill="none" xmlns="http://www.w3.org/2000/svg">
<path d="M17.6888 14.5135C17.6888 13.919 17.4526 13.3491 17.0323 12.9286C16.6119 12.5083 16.0419 12.2721 15.4474 12.2721C14.8529 12.2721 14.2829 12.5083 13.8624 12.9286C13.4421 13.3491 13.2061 13.919 13.2061 14.5135C13.2061 15.108 13.4422 15.6781 13.8624 16.0985C14.2829 16.5188 14.8528 16.7549 15.4474 16.7549C16.0416 16.7538 16.611 16.5173 17.0311 16.0971C17.4511 15.677 17.6876 15.1076 17.6888 14.5135ZM14.4908 14.5135C14.4908 14.2603 14.5914 14.0177 14.7703 13.8386C14.9494 13.6596 15.1921 13.5591 15.4452 13.5591C15.6983 13.5591 15.9412 13.6596 16.1201 13.8386C16.2992 14.0177 16.3997 14.2603 16.3997 14.5135C16.3997 14.7666 16.2992 15.0094 16.1201 15.1884C15.9412 15.3675 15.6983 15.468 15.4452 15.468C15.1927 15.4668 14.9507 15.3658 14.7724 15.187C14.5939 15.0082 14.4935 14.7662 14.4929 14.5135L14.4908 14.5135Z" fill="#1E1E1E"/>
<path d="M17.4977 3.10745H4.91631C4.68651 3.10745 4.47405 3.23013 4.35915 3.42926C4.24424 3.6284 4.24424 3.87363 4.35915 4.07276C4.47405 4.27174 4.6865 4.39442 4.91631 4.39442H17.4977C17.5647 4.39248 17.6289 4.42195 17.6709 4.47416C17.713 4.52638 17.7282 4.59535 17.7122 4.66043L16.5346 9.40286C16.5002 9.5423 16.42 9.66618 16.3068 9.7549C16.1937 9.84347 16.0542 9.89164 15.9104 9.89179H7.20883C7.06416 9.89194 6.92367 9.84332 6.81012 9.75385C6.69641 9.66438 6.61637 9.53915 6.58256 9.39852L4.68651 1.4798C4.58537 1.05818 4.34524 0.682944 4.00471 0.41457C3.66419 0.146015 3.24333 0 2.80976 0H0.643494C0.413539 0 0.20108 0.122533 0.0861772 0.321667C-0.0287257 0.520801 -0.0287257 0.766034 0.0861772 0.965161C0.20108 1.16415 0.413532 1.28683 0.643494 1.28683H2.80976C2.95443 1.28668 3.09492 1.3353 3.20847 1.42477C3.32218 1.51439 3.40237 1.63947 3.43603 1.7801L5.33208 9.69882C5.43322 10.1204 5.6735 10.4957 6.01388 10.7642C6.3544 11.0326 6.77526 11.1786 7.20883 11.1788H15.9104C16.3419 11.1789 16.761 11.0345 17.1009 10.7685C17.4407 10.5027 17.6815 10.1306 17.7851 9.71166L18.9561 4.96732C19.0669 4.51893 18.9654 4.04449 18.6805 3.68109C18.3958 3.31753 17.9595 3.10524 17.4976 3.10555L17.4977 3.10745Z" fill="#1E1E1E"/>
<path d="M9.36448 14.5135C9.36448 13.9192 9.12839 13.3492 8.70827 12.9289C8.28799 12.5085 7.71811 12.2723 7.12372 12.2722C6.52944 12.272 5.95945 12.5078 5.53902 12.9279C5.11847 13.348 4.88208 13.9178 4.88177 14.5122C4.88132 15.1064 5.11696 15.6766 5.53691 16.0972C5.95688 16.5177 6.52661 16.7544 7.12085 16.7549C7.71539 16.7544 8.28543 16.5182 8.70601 16.0979C9.12644 15.6778 9.36329 15.108 9.36448 14.5135ZM6.1665 14.5135C6.1665 14.2604 6.26704 14.0177 6.44598 13.8386C6.62507 13.6597 6.86775 13.5591 7.12088 13.5591C7.37401 13.5591 7.61684 13.6597 7.79578 13.8386C7.97487 14.0177 8.07541 14.2604 8.07541 14.5135C8.07541 14.7666 7.97487 15.0095 7.79578 15.1884C7.61685 15.3675 7.37401 15.468 7.12088 15.468C6.86803 15.4674 6.6255 15.3667 6.44671 15.1878C6.26777 15.009 6.1671 14.7665 6.1665 14.5135Z" fill="#1E1E1E"/>
</svg>
